<?xml version="1.0" encoding="UTF-8"?>
<svg version="1.1" xmlns="http://www.w3.org/2000/svg" width="512" height="512">
<path d="M0 0 C1.53450793 -0.00417831 3.06901277 -0.00965854 4.60351193 -0.01631981 C8.79919869 -0.03072805 12.99468824 -0.02654422 17.19038558 -0.019153 C21.72356094 -0.01441214 26.2566942 -0.02693929 30.78985596 -0.03717041 C39.66259329 -0.05434584 48.53525976 -0.05520101 57.4080094 -0.04995751 C64.62163438 -0.04591219 71.83523847 -0.04736366 79.04886246 -0.05270576 C80.59028467 -0.0538284 80.59028467 -0.0538284 82.16284672 -0.05497371 C84.25060661 -0.05650523 86.3383665 -0.05804357 88.42612638 -0.05958868 C107.99442155 -0.07330921 127.56267671 -0.06787919 147.13097097 -0.05640347 C165.02161346 -0.04647183 182.91215252 -0.05941136 200.80277906 -0.08333766 C219.18620609 -0.10773721 237.56958495 -0.1173344 255.95302784 -0.11068493 C266.26860062 -0.10719459 276.58409387 -0.10941261 286.89965439 -0.12693596 C295.68112349 -0.14166863 304.46245705 -0.14227942 313.24392353 -0.12486505 C317.72140371 -0.11636144 322.19864185 -0.11418984 326.67610931 -0.1295166 C330.78073443 -0.14339277 334.88491084 -0.13856322 338.98951019 -0.11927737 C340.46855234 -0.11552599 341.94763068 -0.11841431 343.4266405 -0.12888902 C359.32709185 -0.23342725 370.82535548 3.86332431 382.50564575 14.70018005 C393.26287724 26.06631144 395.21061424 38.50996143 395.14332581 53.6320343 C395.14750411 55.16654223 395.15298435 56.70104707 395.15964562 58.23554623 C395.17405385 62.43123299 395.16987003 66.62672254 395.1624788 70.82241988 C395.15773795 75.35559524 395.1702651 79.8887285 395.18049622 84.42189026 C395.19767165 93.29462759 395.19852682 102.16729406 395.19328331 111.0400437 C395.189238 118.25366868 395.19068947 125.46727277 395.19603157 132.68089676 C395.19677999 133.70851157 395.19752841 134.73612637 395.19829952 135.79488102 C395.19983103 137.88264091 395.20136938 139.9704008 395.20291448 142.05816068 C395.21663502 161.62645585 395.211205 181.19471102 395.19972927 200.76300527 C395.18979764 218.65364776 395.20273717 236.54418683 395.22666346 254.43481337 C395.25106302 272.81824039 395.2606602 291.20161926 395.25401074 309.58506215 C395.25052039 319.90063493 395.25273841 330.21612817 395.27026176 340.53168869 C395.28499444 349.31315779 395.28560523 358.09449136 395.26819085 366.87595783 C395.25968724 371.35343801 395.25751565 375.83067616 395.27284241 380.30814362 C395.28671858 384.41276873 395.28188903 388.51694514 395.26260317 392.6215445 C395.2588518 394.10058664 395.26174011 395.57966499 395.27221482 397.0586748 C395.37675305 412.95912615 391.2800015 424.45738978 380.44314575 436.13768005 C369.07701437 446.89491154 356.63336438 448.84264854 341.5112915 448.77536011 C339.97678357 448.77953841 338.44227874 448.78501865 336.90777957 448.79167992 C332.71209282 448.80608815 328.51660327 448.80190433 324.32090592 448.79451311 C319.78773056 448.78977225 315.2545973 448.8022994 310.72143555 448.81253052 C301.84869822 448.82970595 292.97603174 448.83056112 284.10328211 448.82531761 C276.88965712 448.8212723 269.67605304 448.82272377 262.46242905 448.82806587 C260.92100684 448.82918851 260.92100684 448.82918851 259.34844478 448.83033382 C257.26068489 448.83186533 255.17292501 448.83340368 253.08516513 448.83494879 C233.51686996 448.84866932 213.94861479 448.8432393 194.38032053 448.83176357 C176.48967804 448.82183194 158.59913898 448.83477147 140.70851244 448.85869776 C122.32508542 448.88309732 103.94170655 448.89269451 85.55826366 448.88604504 C75.24269088 448.88255469 64.92719763 448.88477271 54.61163712 448.90229607 C45.83016801 448.91702874 37.04883445 448.91763953 28.26736797 448.90022516 C23.7898878 448.89172154 19.31264965 448.88954995 14.83518219 448.90487671 C10.73055707 448.91875288 6.62638066 448.91392333 2.52178131 448.89463747 C1.04273916 448.8908861 -0.43633918 448.89377442 -1.91534899 448.90424912 C-17.81580035 449.00878735 -29.31406398 444.9120358 -40.99435425 434.07518005 C-51.75158574 422.70904867 -53.69932273 410.26539868 -53.6320343 395.14332581 C-53.63621261 393.60881788 -53.64169284 392.07431304 -53.64835411 390.53981388 C-53.66276235 386.34412712 -53.65857853 382.14863757 -53.6511873 377.95294023 C-53.64644644 373.41976486 -53.65897359 368.8866316 -53.66920471 364.35346985 C-53.68638015 355.48073252 -53.68723532 346.60806605 -53.68199181 337.73531641 C-53.67794649 330.52169142 -53.67939796 323.30808734 -53.68474007 316.09446335 C-53.68548849 315.06684854 -53.68623691 314.03923373 -53.68700801 312.98047908 C-53.68853953 310.89271919 -53.69007787 308.80495931 -53.69162298 306.71719943 C-53.70534351 287.14890426 -53.6999135 267.58064909 -53.68843777 248.01235484 C-53.67850614 230.12171234 -53.69144566 212.23117328 -53.71537196 194.34054674 C-53.73977152 175.95711972 -53.7493687 157.57374085 -53.74271923 139.19029796 C-53.73922889 128.87472518 -53.74144691 118.55923193 -53.75897026 108.24367142 C-53.77370294 99.46220231 -53.77431373 90.68086875 -53.75689935 81.89940228 C-53.74839574 77.4219221 -53.74622415 72.94468395 -53.7615509 68.46721649 C-53.77542707 64.36259138 -53.77059752 60.25841497 -53.75131167 56.15381561 C-53.7475603 54.67477347 -53.75044861 53.19569512 -53.76092332 51.71668531 C-53.86546155 35.81623396 -49.76870999 24.31797033 -38.93185425 12.63768005 C-27.56572286 1.88044856 -15.12207287 -0.06728843 0 0 Z M-17.18185425 38.13768005 C-27.36763962 54.18800851 -21.24435425 83.15107032 -21.24435425 96.38768005 C105.47564575 96.38768005 232.19564575 96.38768005 362.75564575 96.38768005 C366.37364807 68.74910296 366.37364807 68.74910296 357.00564575 36.45018005 C349.29665032 31.55793295 341.48026852 32.10086262 332.61114502 32.12698364 C331.15958614 32.12396129 329.70802885 32.12007139 328.25647438 32.11539108 C324.27628383 32.10511308 320.29618337 32.10729239 316.31598544 32.11157167 C312.02004447 32.11403925 307.72412517 32.10502432 303.42819214 32.09753418 C295.01527305 32.08478603 286.60238587 32.08299364 278.18945874 32.08533444 C271.35093066 32.08711764 264.51241227 32.08536792 257.67388535 32.08111 C256.70050512 32.08051481 255.7271249 32.07991962 254.72424831 32.0793064 C252.74680663 32.07809464 250.76936495 32.07688051 248.79192327 32.07566402 C230.24810635 32.06478802 211.70430761 32.06695125 193.16048966 32.07304887 C176.19882642 32.078218 159.23722062 32.06696277 142.27556874 32.04795065 C124.85615708 32.02857522 107.43677259 32.02031574 90.01735008 32.0240739 C80.23895559 32.0259864 70.46060998 32.0234936 60.68222427 32.00935936 C52.3577233 31.99744836 44.03330131 31.99603753 35.70879926 32.00814953 C31.46262557 32.01404019 27.21659636 32.01513248 22.97043228 32.00314713 C19.08055912 31.99229516 15.19095118 31.99538342 11.30109046 32.00940881 C9.89670754 32.01205764 8.49230388 32.00968333 7.0879413 32.00167295 C-6.17014616 31.70443561 -6.17014616 31.70443561 -17.18185425 38.13768005 Z M-21.24435425 128.38768005 C-21.30622925 173.08205505 -21.36810425 217.77643005 -21.43185425 263.82518005 C-21.45916626 277.94355652 -21.48647827 292.06193298 -21.51461792 306.60813904 C-21.52465051 319.25102887 -21.52465051 319.25102887 -21.53068542 331.8939209 C-21.53348316 337.53023022 -21.54448823 343.16645035 -21.56108093 348.80273438 C-21.58019455 355.30496174 -21.58885796 361.80710354 -21.5846891 368.3093592 C-21.58288396 371.63468196 -21.58739989 374.95966051 -21.60199964 378.28497398 C-21.6169246 381.84987743 -21.61332306 385.41430307 -21.6051178 388.97921753 C-21.61385579 390.01104188 -21.62259378 391.04286623 -21.63159657 392.10595798 C-21.59126334 398.62736338 -21.22282359 405.67789388 -16.96939629 410.97568411 C-9.67229565 417.65170244 -0.32246762 416.67553858 8.90014648 416.64837646 C10.35170536 416.65139881 11.80326265 416.65528872 13.25481713 416.65996903 C17.23500768 416.67024703 21.21510813 416.66806772 25.19530606 416.66378844 C29.49124704 416.66132086 33.78716634 416.67033578 38.08309937 416.67782593 C46.49601846 416.69057408 54.90890564 416.69236647 63.32183276 416.69002566 C70.16036084 416.68824247 76.99887924 416.68999219 83.83740616 416.69425011 C84.81078638 416.6948453 85.7841666 416.69544048 86.78704319 416.69605371 C88.76448487 416.69726546 90.74192655 416.6984796 92.71936823 416.69969609 C111.26318516 416.71057209 129.80698389 416.70840885 148.35080184 416.70231124 C165.31246508 416.69714211 182.27407089 416.70839733 199.23572277 416.72740946 C216.65513443 416.74678489 234.07451892 416.75504437 251.49394143 416.75128621 C261.27233592 416.74937371 271.05068153 416.7518665 280.82906723 416.76600075 C289.1535682 416.77791175 297.4779902 416.77932258 305.80249225 416.76721058 C310.04866593 416.76131992 314.29469514 416.76022763 318.54085922 416.77221298 C322.43073238 416.78306495 326.32034032 416.77997669 330.21020104 416.7659513 C331.61458396 416.76330247 333.01898762 416.76567677 334.4233502 416.77368716 C346.56450125 417.04183147 346.56450125 417.04183147 357.3319701 412.11277467 C363.3773335 405.56146517 363.04301522 397.56684506 362.99615479 389.21972656 C362.99786682 388.10570465 362.99957886 386.99168274 363.00134277 385.84390259 C363.00464984 382.10395383 362.99361134 378.36418468 362.98269653 374.62425232 C362.98097068 371.90005099 362.98226215 369.17585299 362.98342705 366.45165157 C362.98448903 359.89494966 362.97526738 353.33830268 362.96242439 346.78161487 C362.94800998 339.19517906 362.9464341 331.60877612 362.94485474 324.02232361 C362.93435913 303.99826707 362.90643684 283.97422273 362.88064575 263.95018005 C362.83939575 219.21455505 362.79814575 174.47893005 362.75564575 128.38768005 C236.03564575 128.38768005 109.31564575 128.38768005 -21.24435425 128.38768005 Z " fill="#000000" transform="translate(85.24435424804688,31.612319946289063)"/>
<path d="M0 0 C6.43512147 5.79291481 12.59660706 11.85973471 18.74397278 17.95433044 C19.32865011 18.5336841 19.91332745 19.11303776 20.51572227 19.70994759 C23.60222577 22.76991408 26.68517458 25.8334162 29.76570129 28.8993988 C32.30275992 31.42306883 34.84691097 33.93924799 37.39753723 36.44920349 C40.49780126 39.50006697 43.58553086 42.56310143 46.66473961 45.63521004 C47.83302308 46.79680626 49.00553701 47.95416467 50.18244362 49.10702324 C51.82869677 50.72150108 53.4583092 52.35121789 55.08503723 53.9853363 C56.47780632 55.36597511 56.47780632 55.36597511 57.89871216 56.77450562 C61.48439205 61.28514036 63.65545794 66.02480138 63.19319153 71.86448669 C61.57818879 78.53983135 57.35596031 82.93948649 52.60432434 87.69725037 C52.05088348 88.25901474 51.49744263 88.82077911 50.92723083 89.39956665 C49.10980239 91.24094217 47.28494223 93.07470732 45.45881653 94.90745544 C44.18325195 96.19199574 42.90776077 97.47660893 41.63233948 98.7612915 C38.96296829 101.44711209 36.2892704 104.12854372 33.6131134 106.80760193 C30.19394591 110.23215858 26.7912386 113.67258674 23.39227676 117.11718273 C20.76525349 119.77401829 18.12697873 122.41946104 15.48551178 125.0619297 C14.22638173 126.32525123 12.97135093 127.59267286 11.72063446 128.86432457 C9.96699068 130.64497661 8.19804877 132.40897049 6.42463684 134.16990662 C5.91734039 134.69203735 5.41004395 135.21416809 4.88737488 135.75212097 C0.77942047 139.7787584 -3.93744159 142.5565694 -9.80663681 142.83858013 C-14.73247527 142.45268102 -18.00723843 140.88202287 -21.74430847 137.73948669 C-25.35622677 133.4442325 -26.96755202 129.35792932 -26.74430847 123.73948669 C-24.77614284 115.5392608 -19.50475691 110.85141897 -13.60758972 105.11448669 C-12.60187364 104.11811118 -11.59726697 103.12061474 -10.59371948 102.12205505 C-7.96609097 99.5133984 -5.32379477 96.92011728 -2.67802429 94.32987976 C0.02580155 91.67745938 2.71529955 89.01059533 5.40608215 86.34495544 C10.67546253 81.1289892 15.96044154 75.92920213 21.25569153 70.73948669 C19.77286352 67.27492018 17.82373506 65.09475678 15.12898254 62.48094177 C14.27792435 61.64940079 13.42686615 60.8178598 12.55001831 59.96112061 C11.62917953 59.06942673 10.70834076 58.17773285 9.75959778 57.25901794 C8.80470247 56.3231118 7.85069046 55.38630367 6.89752197 54.44863892 C2.85849484 50.47657557 -1.18829145 46.51272022 -5.25627136 42.57029724 C-7.74853729 40.15380853 -10.22553824 37.72251855 -12.69372749 35.28145409 C-14.08486304 33.91403645 -15.49213024 32.56309211 -16.89968872 31.21258545 C-21.87800039 26.27453671 -25.81434363 21.8977833 -26.74430847 14.73948669 C-26.34874775 8.45368781 -24.53827044 4.02345271 -19.74430847 -0.26051331 C-13.26900305 -3.80621453 -6.21472955 -4.49103437 0 0 Z " fill="#000000" transform="translate(137.7443084716797,210.26051330566406)"/>
<path d="M0 0 C0.73250977 -0.00700928 1.46501953 -0.01401855 2.21972656 -0.02124023 C4.62604382 -0.03875584 7.03117209 -0.02722142 9.4375 -0.01367188 C11.11849186 -0.01636866 12.79948221 -0.02025264 14.48046875 -0.02526855 C17.99754743 -0.03115485 21.5142188 -0.02262896 25.03125 -0.00390625 C29.53052189 0.01888312 34.02883927 0.00575532 38.52807617 -0.01819611 C41.99746847 -0.03267779 45.46663594 -0.02803731 48.93603516 -0.01768494 C50.59456496 -0.01502418 52.25311544 -0.01826444 53.91162109 -0.02760315 C56.23329421 -0.03780834 58.55344011 -0.02221466 60.875 0 C62.19371094 0.00318237 63.51242187 0.00636475 64.87109375 0.00964355 C70.16529367 0.76365389 73.1949097 3.20958834 76.8125 7.01757812 C79.21053575 12.18257821 79.19131535 16.91780692 78.4375 22.51757812 C76.12838725 27.49105174 73.16511365 29.84944159 68.4375 32.51757812 C64.87109375 33.0255127 64.87109375 33.0255127 60.875 33.03515625 C60.14249023 33.04216553 59.40998047 33.0491748 58.65527344 33.05639648 C56.24895618 33.07391209 53.84382791 33.06237767 51.4375 33.04882812 C49.75650814 33.05152491 48.07551779 33.05540889 46.39453125 33.0604248 C42.87745257 33.0663111 39.3607812 33.05778521 35.84375 33.0390625 C31.34447811 33.01627313 26.84616073 33.02940093 22.34692383 33.05335236 C18.87753153 33.06783404 15.40836406 33.06319356 11.93896484 33.05284119 C10.28043504 33.05018043 8.62188456 33.05342069 6.96337891 33.0627594 C4.64170579 33.07296459 2.32155989 33.05737091 0 33.03515625 C-1.31871094 33.03197388 -2.63742188 33.0287915 -3.99609375 33.0255127 C-9.29029367 32.27150236 -12.3199097 29.82556791 -15.9375 26.01757812 C-18.33553575 20.85257804 -18.31631535 16.11734933 -17.5625 10.51757812 C-13.97822937 2.79761062 -8.2761305 0.01997233 0 0 Z " fill="#000000" transform="translate(225.5625,319.482421875)"/>
</svg>
