<?xml version="1.0" encoding="UTF-8"?>
<svg version="1.1" xmlns="http://www.w3.org/2000/svg" width="512" height="512">
<path d="M0 0 C4.96578143 2.30554138 7.40420651 5.23126014 10 10 C10.5577584 13.15751255 10.52350606 16.25353049 10.48101807 19.45321655 C10.48443577 20.39756014 10.48785347 21.34190374 10.49137473 22.3148638 C10.49795643 25.47503048 10.47597224 28.63434533 10.45410156 31.79443359 C10.45297315 34.06129944 10.45360682 36.32816674 10.45587158 38.59503174 C10.45701989 44.74750077 10.43349124 50.89965828 10.40557575 57.05205488 C10.38058182 63.48224785 10.37822167 69.91244784 10.37347412 76.34268188 C10.36245163 87.13492877 10.33746168 97.92704783 10.30175781 108.71923828 C10.26502569 119.83381581 10.23671983 130.94836228 10.21972656 142.06298828 C10.21815022 143.09113724 10.21815022 143.09113724 10.21654204 144.14005689 C10.21132178 147.57876928 10.20626697 151.01748189 10.20129442 154.45619464 C10.15984682 182.9708751 10.08911311 211.48543142 10 240 C10.67466309 239.97905273 11.34932617 239.95810547 12.04443359 239.93652344 C15.15446567 239.85245414 18.26425759 239.80105556 21.375 239.75 C22.43589844 239.71648437 23.49679687 239.68296875 24.58984375 239.6484375 C34.21052214 239.53039237 42.30771065 241.60873448 49.46875 248.296875 C56.62418337 256.25546925 58.31240149 264.29056513 58.3359375 274.734375 C58.3459227 276.2841806 58.3459227 276.2841806 58.35610962 277.86529541 C58.36621209 280.04722317 58.37092739 282.22918169 58.37060547 284.41113281 C58.37496728 287.72513644 58.41128237 291.03779518 58.44921875 294.3515625 C58.4550899 296.47916215 58.45905729 298.60676808 58.4609375 300.734375 C58.48249405 302.20363434 58.48249405 302.20363434 58.50448608 303.70257568 C58.44507985 312.78618765 55.98984476 320.73751471 49.703125 327.46875 C41.1669626 335.14346482 32.78039038 336.29581281 21.625 336.125 C20.50738281 336.11597656 19.38976562 336.10695313 18.23828125 336.09765625 C15.49196538 336.07418346 12.74609528 336.04134728 10 336 C10.01332367 337.29546249 10.01332367 337.29546249 10.0269165 338.61709595 C10.10716339 346.7679158 10.16801565 354.91860241 10.20724869 363.06972694 C10.22809718 367.26003538 10.25636416 371.45001659 10.30175781 375.64013672 C10.34531419 379.68612242 10.3691577 383.73179395 10.37950897 387.77799606 C10.38688286 389.31934935 10.40128257 390.86068602 10.42292023 392.40190506 C10.45208611 394.56599936 10.45595076 396.72880625 10.45410156 398.89306641 C10.46298401 400.12328522 10.47186646 401.35350403 10.48101807 402.6210022 C9.74442897 407.79530458 7.21864835 410.84228406 3.5 414.375 C-1.66500009 416.77303575 -6.4002288 416.75381535 -12 416 C-16.97447267 413.6904234 -19.31899945 410.719699 -22 406 C-22.48101807 402.6210022 -22.48101807 402.6210022 -22.45410156 398.89306641 C-22.45468567 398.20944031 -22.45526978 397.52581421 -22.45587158 396.82147217 C-22.45310371 394.58097025 -22.42207681 392.34182949 -22.390625 390.1015625 C-22.38315791 388.54072801 -22.37746719 386.97988411 -22.37347412 385.41903687 C-22.35825441 381.32531522 -22.31900507 377.23216778 -22.2746582 373.13867188 C-22.23362584 368.95580817 -22.21544617 364.77285102 -22.1953125 360.58984375 C-22.15250648 352.39296665 -22.08430054 344.1965549 -22 336 C-22.6798999 336.02094727 -23.3597998 336.04189453 -24.06030273 336.06347656 C-27.18588047 336.14739895 -30.31122016 336.1988991 -33.4375 336.25 C-34.50677734 336.28351563 -35.57605469 336.31703125 -36.67773438 336.3515625 C-47.12986343 336.47941729 -55.38332754 333.25080609 -63 326 C-69.07136903 318.29521697 -70.31431799 310.8590117 -70.3359375 301.265625 C-70.3425943 300.23242126 -70.3492511 299.19921753 -70.35610962 298.13470459 C-70.36621209 295.95277683 -70.37092739 293.77081831 -70.37060547 291.58886719 C-70.37496728 288.27486356 -70.41128237 284.96220482 -70.44921875 281.6484375 C-70.4550899 279.52083785 -70.45905729 277.39323192 -70.4609375 275.265625 C-70.48249405 273.79636566 -70.48249405 273.79636566 -70.50448608 272.29742432 C-70.44507985 263.21381235 -67.98984476 255.26248529 -61.703125 248.53125 C-53.1669626 240.85653518 -44.78039038 239.70418719 -33.625 239.875 C-31.94857422 239.88853516 -31.94857422 239.88853516 -30.23828125 239.90234375 C-27.49196538 239.92581654 -24.74609528 239.95865272 -22 240 C-22.00368717 238.82017233 -22.00737434 237.64034466 -22.01117325 236.42476463 C-22.09780465 208.4180315 -22.16376204 180.41130881 -22.20426132 152.40446981 C-22.20926414 148.95730907 -22.21444143 145.5101486 -22.21972656 142.06298828 C-22.2207758 141.37672075 -22.22182505 140.69045321 -22.22290608 139.98338969 C-22.24031131 128.87144015 -22.27184962 117.75957338 -22.30861118 106.64767294 C-22.34601741 95.24581749 -22.36793575 83.84402922 -22.37635398 72.44211066 C-22.38157372 66.03780535 -22.39386202 59.6336878 -22.42292023 53.2294426 C-22.45004206 47.20321772 -22.45845141 41.1772582 -22.45243073 35.15097809 C-22.4535324 32.93782993 -22.46150527 30.72467303 -22.4768219 28.51157761 C-22.49669876 25.4917968 -22.49194712 22.47302019 -22.48101807 19.45321655 C-22.49266943 18.57577549 -22.5043208 17.69833443 -22.51632524 16.79430425 C-22.46318387 11.3686837 -21.58793148 8.3159597 -18 4 C-12.72867143 -1.00776214 -6.89190982 -0.92775709 0 0 Z M-38 272 C-38 282.56 -38 293.12 -38 304 C-16.88 304 4.24 304 26 304 C26 293.44 26 282.88 26 272 C4.88 272 -16.24 272 -38 272 Z " fill="#000000" transform="translate(406,48)"/>
<path d="M0 0 C4.97447267 2.3095766 7.31899945 5.280301 10 10 C10.48101807 13.3789978 10.48101807 13.3789978 10.45410156 17.10693359 C10.45468567 17.79055969 10.45526978 18.47418579 10.45587158 19.17852783 C10.45310371 21.41902975 10.42207681 23.65817051 10.390625 25.8984375 C10.38315791 27.45927199 10.37746719 29.02011589 10.37347412 30.58096313 C10.35825441 34.67468478 10.31900507 38.76783222 10.2746582 42.86132812 C10.23362584 47.04419183 10.21544617 51.22714898 10.1953125 55.41015625 C10.15250648 63.60703335 10.08430054 71.8034451 10 80 C11.01199463 79.9685791 11.01199463 79.9685791 12.04443359 79.93652344 C15.15446567 79.85245414 18.26425759 79.80105556 21.375 79.75 C22.43589844 79.71648437 23.49679687 79.68296875 24.58984375 79.6484375 C34.21052214 79.53039237 42.30771065 81.60873448 49.46875 88.296875 C56.62418337 96.25546925 58.31240149 104.29056513 58.3359375 114.734375 C58.3459227 116.2841806 58.3459227 116.2841806 58.35610962 117.86529541 C58.36621209 120.04722317 58.37092739 122.22918169 58.37060547 124.41113281 C58.37496728 127.72513644 58.41128237 131.03779518 58.44921875 134.3515625 C58.4550899 136.47916215 58.45905729 138.60676808 58.4609375 140.734375 C58.47530853 141.71388123 58.48967957 142.69338745 58.50448608 143.70257568 C58.44507985 152.78618765 55.98984476 160.73751471 49.703125 167.46875 C41.1669626 175.14346482 32.78039038 176.29581281 21.625 176.125 C20.50738281 176.11597656 19.38976562 176.10695312 18.23828125 176.09765625 C15.49196538 176.07418346 12.74609528 176.04134728 10 176 C10.00368717 177.17982767 10.00737434 178.35965534 10.01117325 179.57523537 C10.09780465 207.5819685 10.16376204 235.58869119 10.20426132 263.59553019 C10.20926414 267.04269093 10.21444143 270.4898514 10.21972656 273.93701172 C10.2207758 274.62327925 10.22182505 275.30954679 10.22290608 276.01661031 C10.24031131 287.12855985 10.27184962 298.24042662 10.30861118 309.35232706 C10.34601741 320.75418251 10.36793575 332.15597078 10.37635398 343.55788934 C10.38157372 349.96219465 10.39386202 356.3663122 10.42292023 362.7705574 C10.45004206 368.79678228 10.45845141 374.8227418 10.45243073 380.84902191 C10.4535324 383.06217007 10.46150527 385.27532697 10.4768219 387.48842239 C10.49669876 390.5082032 10.49194712 393.52697981 10.48101807 396.54678345 C10.49849512 397.86294504 10.49849512 397.86294504 10.51632524 399.20569575 C10.46318387 404.6313163 9.58793148 407.6840403 6 412 C2.18069828 415.62833663 -0.88279006 416.31000458 -6 416.5 C-11.11720994 416.31000458 -14.18069828 415.62833663 -18 412 C-22.30109095 406.82617344 -22.56643549 402.97939868 -22.48101807 396.54678345 C-22.48443577 395.60243986 -22.48785347 394.65809626 -22.49137473 393.6851362 C-22.49795643 390.52496952 -22.47597224 387.36565467 -22.45410156 384.20556641 C-22.45297315 381.93870056 -22.45360682 379.67183326 -22.45587158 377.40496826 C-22.45701989 371.25249923 -22.43349124 365.10034172 -22.40557575 358.94794512 C-22.38058182 352.51775215 -22.37822167 346.08755216 -22.37347412 339.65731812 C-22.36245163 328.86507123 -22.33746168 318.07295217 -22.30175781 307.28076172 C-22.26502569 296.16618419 -22.23671983 285.05163772 -22.21972656 273.93701172 C-22.21867567 273.25157908 -22.21762477 272.56614643 -22.21654204 271.85994311 C-22.21132178 268.42123072 -22.20626697 264.98251811 -22.20129442 261.54380536 C-22.15984682 233.0291249 -22.08911311 204.51456858 -22 176 C-22.6798999 176.02094727 -23.3597998 176.04189453 -24.06030273 176.06347656 C-27.18588047 176.14739895 -30.31122016 176.1988991 -33.4375 176.25 C-34.50677734 176.28351563 -35.57605469 176.31703125 -36.67773438 176.3515625 C-47.12986343 176.47941729 -55.38332754 173.25080609 -63 166 C-69.07136903 158.29521697 -70.31431799 150.8590117 -70.3359375 141.265625 C-70.3425943 140.23242126 -70.3492511 139.19921753 -70.35610962 138.13470459 C-70.36621209 135.95277683 -70.37092739 133.77081831 -70.37060547 131.58886719 C-70.37496728 128.27486356 -70.41128237 124.96220482 -70.44921875 121.6484375 C-70.4550899 119.52083785 -70.45905729 117.39323192 -70.4609375 115.265625 C-70.47530853 114.28611877 -70.48967957 113.30661255 -70.50448608 112.29742432 C-70.44507985 103.21381235 -67.98984476 95.26248529 -61.703125 88.53125 C-53.1669626 80.85653518 -44.78039038 79.70418719 -33.625 79.875 C-31.94857422 79.88853516 -31.94857422 79.88853516 -30.23828125 79.90234375 C-27.49196538 79.92581654 -24.74609528 79.95865272 -22 80 C-22.00888245 79.13635834 -22.01776489 78.27271667 -22.0269165 77.38290405 C-22.10716339 69.2320842 -22.16801565 61.08139759 -22.20724869 52.93027306 C-22.22809718 48.73996462 -22.25636416 44.54998341 -22.30175781 40.35986328 C-22.34531419 36.31387758 -22.3691577 32.26820605 -22.37950897 28.22200394 C-22.38688286 26.68065065 -22.40128257 25.13931398 -22.42292023 23.59809494 C-22.45208611 21.43400064 -22.45595076 19.27119375 -22.45410156 17.10693359 C-22.46298401 15.87671478 -22.47186646 14.64649597 -22.48101807 13.3789978 C-21.74442897 8.20469542 -19.21864835 5.15771594 -15.5 1.625 C-10.33499991 -0.77303575 -5.5997712 -0.75381535 0 0 Z M-38 112 C-38 122.56 -38 133.12 -38 144 C-16.88 144 4.24 144 26 144 C26 133.44 26 122.88 26 112 C4.88 112 -16.24 112 -38 112 Z " fill="#000000" transform="translate(262,48)"/>
<path d="M0 0 C4.96578143 2.30554138 7.40420651 5.23126014 10 10 C10.5577584 13.15751255 10.52350606 16.25353049 10.48101807 19.45321655 C10.48443577 20.39756014 10.48785347 21.34190374 10.49137473 22.3148638 C10.49795643 25.47503048 10.47597224 28.63434533 10.45410156 31.79443359 C10.45297315 34.06129944 10.45360682 36.32816674 10.45587158 38.59503174 C10.45701989 44.74750077 10.43349124 50.89965828 10.40557575 57.05205488 C10.38058182 63.48224785 10.37822167 69.91244784 10.37347412 76.34268188 C10.36245163 87.13492877 10.33746168 97.92704783 10.30175781 108.71923828 C10.26502569 119.83381581 10.23671983 130.94836228 10.21972656 142.06298828 C10.21815022 143.09113724 10.21815022 143.09113724 10.21654204 144.14005689 C10.21132178 147.57876928 10.20626697 151.01748189 10.20129442 154.45619464 C10.15984682 182.9708751 10.08911311 211.48543142 10 240 C10.67466309 239.97905273 11.34932617 239.95810547 12.04443359 239.93652344 C15.15446567 239.85245414 18.26425759 239.80105556 21.375 239.75 C22.43589844 239.71648437 23.49679688 239.68296875 24.58984375 239.6484375 C34.21052214 239.53039237 42.30771065 241.60873448 49.46875 248.296875 C56.62418337 256.25546925 58.31240149 264.29056513 58.3359375 274.734375 C58.3459227 276.2841806 58.3459227 276.2841806 58.35610962 277.86529541 C58.36621209 280.04722317 58.37092739 282.22918169 58.37060547 284.41113281 C58.37496728 287.72513644 58.41128237 291.03779518 58.44921875 294.3515625 C58.4550899 296.47916215 58.45905729 298.60676808 58.4609375 300.734375 C58.48249405 302.20363434 58.48249405 302.20363434 58.50448608 303.70257568 C58.44507985 312.78618765 55.98984476 320.73751471 49.703125 327.46875 C41.1669626 335.14346482 32.78039038 336.29581281 21.625 336.125 C20.50738281 336.11597656 19.38976562 336.10695313 18.23828125 336.09765625 C15.49196538 336.07418346 12.74609528 336.04134728 10 336 C10.01332367 337.29546249 10.01332367 337.29546249 10.0269165 338.61709595 C10.10716339 346.7679158 10.16801565 354.91860241 10.20724869 363.06972694 C10.22809718 367.26003538 10.25636416 371.45001659 10.30175781 375.64013672 C10.34531419 379.68612242 10.3691577 383.73179395 10.37950897 387.77799606 C10.38688286 389.31934935 10.40128257 390.86068602 10.42292023 392.40190506 C10.45208611 394.56599936 10.45595076 396.72880625 10.45410156 398.89306641 C10.46298401 400.12328522 10.47186646 401.35350403 10.48101807 402.6210022 C9.74442897 407.79530458 7.21864835 410.84228406 3.5 414.375 C-1.66500009 416.77303575 -6.4002288 416.75381535 -12 416 C-16.97447267 413.6904234 -19.31899945 410.719699 -22 406 C-22.48101807 402.6210022 -22.48101807 402.6210022 -22.45410156 398.89306641 C-22.45468567 398.20944031 -22.45526978 397.52581421 -22.45587158 396.82147217 C-22.45310371 394.58097025 -22.42207681 392.34182949 -22.390625 390.1015625 C-22.38315791 388.54072801 -22.37746719 386.97988411 -22.37347412 385.41903687 C-22.35825441 381.32531522 -22.31900507 377.23216778 -22.2746582 373.13867188 C-22.23362584 368.95580817 -22.21544617 364.77285102 -22.1953125 360.58984375 C-22.15250648 352.39296665 -22.08430054 344.1965549 -22 336 C-22.6798999 336.02094727 -23.3597998 336.04189453 -24.06030273 336.06347656 C-27.18588047 336.14739895 -30.31122016 336.1988991 -33.4375 336.25 C-34.50677734 336.28351563 -35.57605469 336.31703125 -36.67773438 336.3515625 C-47.12986343 336.47941729 -55.38332754 333.25080609 -63 326 C-69.07136903 318.29521697 -70.31431799 310.8590117 -70.3359375 301.265625 C-70.3425943 300.23242126 -70.3492511 299.19921753 -70.35610962 298.13470459 C-70.36621209 295.95277683 -70.37092739 293.77081831 -70.37060547 291.58886719 C-70.37496728 288.27486356 -70.41128237 284.96220482 -70.44921875 281.6484375 C-70.4550899 279.52083785 -70.45905729 277.39323192 -70.4609375 275.265625 C-70.48249405 273.79636566 -70.48249405 273.79636566 -70.50448608 272.29742432 C-70.44507985 263.21381235 -67.98984476 255.26248529 -61.703125 248.53125 C-53.1669626 240.85653518 -44.78039038 239.70418719 -33.625 239.875 C-31.94857422 239.88853516 -31.94857422 239.88853516 -30.23828125 239.90234375 C-27.49196538 239.92581654 -24.74609528 239.95865272 -22 240 C-22.00368717 238.82017233 -22.00737434 237.64034466 -22.01117325 236.42476463 C-22.09780465 208.4180315 -22.16376204 180.41130881 -22.20426132 152.40446981 C-22.20926414 148.95730907 -22.21444143 145.5101486 -22.21972656 142.06298828 C-22.2207758 141.37672075 -22.22182505 140.69045321 -22.22290608 139.98338969 C-22.24031131 128.87144015 -22.27184962 117.75957338 -22.30861118 106.64767294 C-22.34601741 95.24581749 -22.36793575 83.84402922 -22.37635398 72.44211066 C-22.38157372 66.03780535 -22.39386202 59.6336878 -22.42292023 53.2294426 C-22.45004206 47.20321772 -22.45845141 41.1772582 -22.45243073 35.15097809 C-22.4535324 32.93782993 -22.46150527 30.72467303 -22.4768219 28.51157761 C-22.49669876 25.4917968 -22.49194712 22.47302019 -22.48101807 19.45321655 C-22.49266943 18.57577549 -22.5043208 17.69833443 -22.51632524 16.79430425 C-22.46318387 11.3686837 -21.58793148 8.3159597 -18 4 C-12.72867143 -1.00776214 -6.89190982 -0.92775709 0 0 Z M-38 272 C-38 282.56 -38 293.12 -38 304 C-16.88 304 4.24 304 26 304 C26 293.44 26 282.88 26 272 C4.88 272 -16.24 272 -38 272 Z " fill="#000000" transform="translate(118,48)"/>
</svg>
